<svg width="76" height="73" viewBox="0 0 76 73" fill="none" xmlns="http://www.w3.org/2000/svg">
<path d="M48.7761 73H27.791V69.6046H48.7761V73Z" fill="black"/>
<path d="M37.1493 48.7733C35.6815 49.1502 34.597 50.4799 34.597 52.062C34.597 53.9372 36.1206 55.4574 38 55.4574C39.8794 55.4574 41.403 53.9372 41.403 52.062C41.403 50.4799 40.3185 49.1502 38.8507 48.7733V23.7674H41.9701C43.3881 28.6718 47.8687 41.3667 54.4478 52.9109C53.7672 54.7217 50.3831 63.4742 48.7761 67.624H27.791C26.5622 64.6059 23.3672 57.438 21.5522 52.9109C29.9463 38.1977 33.3682 27.3514 34.0299 23.7674H37.1493V48.7733Z" fill="black"/>
<path d="M42.5373 0C43.7903 2.00518e-07 44.806 1.01343 44.806 2.26357V5.09302H63.4288C64.3041 3.09472 66.3014 1.69767 68.6269 1.69767C71.7592 1.69767 74.2985 4.23126 74.2985 7.35659C74.2985 10.4819 71.7592 13.0155 68.6269 13.0155C66.0873 13.0155 63.9377 11.3501 63.215 9.05426H52.8615C61.8847 13.7319 68.4614 22.4585 70.1727 32.8217H73.7313C74.9843 32.8217 76 33.8351 76 35.0853V44.7054C76 45.9556 74.9843 46.969 73.7313 46.969H64.0896C62.8366 46.969 61.8209 45.9556 61.8209 44.7054V35.0853C61.8209 33.8351 62.8366 32.8217 64.0896 32.8217H66.1405C64.0529 21.7654 55.6458 12.936 44.806 10.2109V11.8837C44.806 13.1339 43.7903 14.1473 42.5373 14.1473H32.8955C31.6426 14.1473 30.6269 13.1339 30.6269 11.8837V10.2109C19.787 12.936 11.38 21.7654 9.2923 32.8217H11.9104C13.1634 32.8217 14.1791 33.8351 14.1791 35.0853V44.7054C14.1791 45.9556 13.1634 46.969 11.9104 46.969H2.26866C1.01571 46.969 0 45.9556 0 44.7054V35.0853C2.00972e-07 33.8351 1.01571 32.8217 2.26866 32.8217H5.26012C6.97146 22.4585 13.5481 13.7319 22.5714 9.05426H11.0835C10.3608 11.3501 8.21119 13.0155 5.67164 13.0155C2.53928 13.0155 0 10.4819 0 7.35659C0 4.23126 2.53928 1.69767 5.67164 1.69767C7.99715 1.69767 9.99439 3.09472 10.8697 5.09302H30.6269V2.26357C30.6269 1.01343 31.6426 0 32.8955 0H42.5373Z" fill="black"/>
</svg>
