<svg width="66" height="54" viewBox="0 0 66 54" fill="none" xmlns="http://www.w3.org/2000/svg">
<path d="M13.1996 10.5001C15.9324 10.5001 18.1496 8.28291 18.1496 5.5501C18.1496 2.81729 15.9324 0.600098 13.1996 0.600098C10.4668 0.600098 8.24959 2.81729 8.24959 5.5501C8.24959 8.28291 10.4668 10.5001 13.1996 10.5001ZM52.7996 10.5001C55.5324 10.5001 57.7496 8.28291 57.7496 5.5501C57.7496 2.81729 55.5324 0.600098 52.7996 0.600098C50.0668 0.600098 47.8496 2.81729 47.8496 5.5501C47.8496 8.28291 50.0668 10.5001 52.7996 10.5001ZM65.7624 48.8729L61.2249 37.5292L56.9865 42.3142L56.7802 44.191L59.6368 51.3273C60.1524 52.6163 61.3899 53.4001 62.6996 53.4001C63.1121 53.4001 63.5246 53.3279 63.9268 53.1629C65.618 52.4823 66.443 50.5642 65.7624 48.8729ZM62.2355 27.2373L60.3277 18.9667C59.8533 16.9042 58.4096 15.1717 56.4605 14.3363C54.5527 13.5113 52.4387 13.6454 50.6752 14.6767C48.3343 16.0585 46.5812 18.2345 45.7149 20.8023L44.5496 24.2982L42.8996 25.3501V15.4501C42.8996 14.5426 42.1571 13.8001 41.2496 13.8001H24.7496C23.8421 13.8001 23.0996 14.5426 23.0996 15.4501V25.3501L21.4393 24.2982L20.274 20.8023C19.418 18.2242 17.6546 16.0585 15.3137 14.6767C13.5399 13.6454 11.4362 13.5113 9.52834 14.3363C7.57928 15.1717 6.13553 16.9042 5.66115 18.9667L3.76365 27.2373C3.28928 29.2998 3.83584 31.486 5.24865 33.0845L12.1787 40.9117L13.2202 50.461C13.4058 52.142 14.829 53.4001 16.4996 53.4001C16.6233 53.4001 16.7368 53.3898 16.8605 53.3795C18.6755 53.1835 19.9749 51.5542 19.779 49.7392L18.7374 40.1692C18.5827 38.8285 18.0258 37.5807 17.1287 36.5598L12.6633 31.5067L14.4783 24.257L15.1796 26.3607C15.6024 27.6498 16.4068 28.7738 17.7062 29.7226L22.9758 33.0742C23.4502 33.3732 24.2237 33.5485 24.7496 33.5898H41.2496C41.7755 33.5485 42.549 33.3732 43.0233 33.0742L48.293 29.7226C49.5924 28.7738 50.3968 27.6601 50.8196 26.3607L51.5208 24.257L53.3358 31.5067L48.8705 36.5598C47.9733 37.5807 47.4165 38.8285 47.2618 40.1692L46.2202 49.7392C46.0243 51.5542 47.334 53.1835 49.1387 53.3795C49.2624 53.3898 49.3758 53.4001 49.4996 53.4001C51.1599 53.4001 52.5933 52.1523 52.779 50.461L53.8205 40.9117L60.7505 33.0845C62.153 31.486 62.7099 29.2998 62.2355 27.2373ZM4.77428 37.5292L0.236779 48.8729C-0.443846 50.5642 0.381154 52.4823 2.0724 53.1629C3.8049 53.8435 5.69209 52.9876 6.3624 51.3273L9.21897 44.191L9.01272 42.3142L4.77428 37.5292Z" fill="black"/>
</svg>
