<svg width="78" height="57" viewBox="0 0 78 57" fill="none" xmlns="http://www.w3.org/2000/svg">
<path d="M71.0918 0.223633C73.3639 0.223842 75.2061 2.06578 75.2061 4.33789V16.6807H76.0283C76.937 16.6808 77.6737 17.4175 77.6738 18.3262V55.3545C77.6738 56.2633 76.9371 56.9999 76.0283 57H56.2793C55.3707 56.9997 54.6338 56.2632 54.6338 55.3545V50.418H4.44043L4.22949 50.4121C2.05563 50.3021 0.326419 48.5048 0.326172 46.3037V4.33789C0.326172 2.06569 2.16825 0.223695 4.44043 0.223633H71.0918ZM64.5078 53.709C64.0538 53.7093 63.6858 54.0773 63.6855 54.5312C63.6855 54.9855 64.0537 55.3541 64.5078 55.3545H67.7998C68.2542 55.3544 68.6221 54.9856 68.6221 54.5312C68.6218 54.0771 68.254 53.7091 67.7998 53.709H64.5078ZM56.2793 47.126H56.2803V50.418H56.2793V52.0635H76.0283V21.6182H56.2793V47.126ZM3.61816 46.3037C3.61842 46.7579 3.98619 47.1259 4.44043 47.126H54.6338V18.3262C54.6339 17.4176 55.3708 16.681 56.2793 16.6807H71.9141V11.7432H3.61816V46.3037ZM62.04 18.3262C61.5857 18.3263 61.2168 18.6951 61.2168 19.1494C61.2169 19.6037 61.5858 19.9715 62.04 19.9717H70.2686C70.7227 19.9715 71.0907 19.6036 71.0908 19.1494C71.0908 18.6951 70.7228 18.3264 70.2686 18.3262H62.04ZM4.44043 3.51465C3.98604 3.51471 3.61816 3.88348 3.61816 4.33789V8.45215H71.9141V4.33789C71.9141 3.88357 71.5461 3.51486 71.0918 3.51465H4.44043Z" fill="black"/>
</svg>
