<svg width="71" height="69" viewBox="0 0 71 69" fill="none" xmlns="http://www.w3.org/2000/svg">
<path d="M20.9053 0.679932C21.7793 0.57419 22.8302 0.744347 23.1045 0.980713C23.2449 1.09509 23.1955 1.21899 22.8506 1.33423C22.687 1.37716 22.5227 1.41765 22.3574 1.4563C22.1919 1.49414 22.0248 1.52909 21.8584 1.56177C21.6922 1.5944 21.5253 1.62607 21.3574 1.65356C21.1902 1.68108 21.0216 1.70542 20.8535 1.72778C19.1699 2.04441 17.5223 2.5273 15.9355 3.16919C15.1435 3.48996 14.3668 3.84916 13.6104 4.24731C12.854 4.64457 12.1185 5.07983 11.4062 5.55103C11.499 5.32575 11.9086 5.03183 12.3799 4.7395C12.4917 4.67586 12.6038 4.61029 12.7139 4.54321C12.8239 4.47702 12.9329 4.40776 13.042 4.33813C13.1502 4.26853 13.2577 4.19743 13.3643 4.12524C13.4699 4.05219 13.5758 3.97822 13.6797 3.90259C13.4008 4.01777 13.1254 4.13987 12.8525 4.2688C12.5797 4.39773 12.31 4.53335 12.0449 4.67603C11.7789 4.81875 11.516 4.96767 11.2578 5.12329C10.9996 5.27895 10.7447 5.44106 10.4951 5.60962C10.2474 5.77722 10.0038 5.9505 9.76562 6.13013C9.52649 6.30983 9.29221 6.49589 9.06348 6.68677C8.83383 6.87855 8.6089 7.0756 8.38965 7.27856C8.17058 7.48137 7.95771 7.68948 7.74902 7.90259C8.04269 7.6017 8.34428 7.30824 8.65527 7.02368C8.96544 6.73995 9.2847 6.46503 9.61133 6.19849C9.93799 5.93278 10.2729 5.67672 10.6143 5.42993C10.9556 5.18316 11.3039 4.94502 11.6592 4.71802C10.7319 5.3039 9.84943 5.9577 9.01953 6.6731C8.18848 7.3874 7.41177 8.16222 6.69727 8.99146C6.32463 9.4249 5.97133 9.87459 5.6377 10.3381C5.30327 10.8016 4.98913 11.2777 4.69629 11.7678C4.40343 12.2571 4.13127 12.7592 3.88086 13.2717C3.63041 13.7843 3.40265 14.3076 3.19727 14.8391C2.88443 15.6105 2.42881 16.279 2.05273 17.0891C1.94099 17.3195 1.84435 17.5588 1.76465 17.803C1.68501 18.047 1.62316 18.2963 1.57812 18.5481C1.53306 18.8009 1.50563 19.0566 1.49609 19.3137C1.48657 19.5699 1.49454 19.826 1.52051 20.0813C1.80681 18.6043 2.24496 17.16 2.82812 15.7717C3.12011 15.0779 3.44743 14.3998 3.80957 13.7395C4.17094 13.079 4.56604 12.4367 4.99414 11.8167C5.84872 10.579 6.82123 9.42502 7.89746 8.37134C8.43462 7.84517 8.99746 7.34433 9.58398 6.87231C10.1698 6.39934 10.7781 5.95467 11.4072 5.53931L11.3955 5.56274C11.3938 5.56538 11.3922 5.56848 11.3916 5.57153C11.9237 5.21205 12.4738 4.87844 13.0371 4.57056C13.6003 4.26273 14.1785 3.98133 14.7686 3.72681C15.3585 3.47318 15.9605 3.24573 16.5713 3.04712C17.1831 2.84846 17.8042 2.67839 18.4316 2.53735C17.6517 2.76182 16.8819 3.02812 16.1973 3.21216C17.0864 2.95674 17.9898 2.7534 18.9023 2.60376C19.8156 2.45416 20.7366 2.3589 21.6611 2.31763C22.5849 2.27721 23.5116 2.28973 24.4346 2.35767C25.3572 2.4256 26.2747 2.54765 27.1826 2.72388C26.532 2.65511 25.8788 2.61217 25.2256 2.59497C24.5713 2.57777 23.9161 2.58608 23.2627 2.62134C22.6094 2.65573 21.9577 2.717 21.3096 2.80298C20.6605 2.88983 20.0155 3.00231 19.376 3.13989C18.7262 3.28005 18.0824 3.44995 17.4473 3.64771C16.8129 3.84637 16.1867 4.07283 15.5723 4.32739C14.9589 4.58273 14.3568 4.86448 13.7686 5.1731C13.181 5.48184 12.606 5.81775 12.0488 6.17896C11.4917 6.54012 10.9515 6.92842 10.4316 7.34204C9.91226 7.75586 9.41314 8.19477 8.93652 8.65649C8.45917 9.1182 8.00589 9.60213 7.57617 10.1077C7.14722 10.6133 6.74306 11.1395 6.36523 11.6838C5.99607 12.217 5.65388 12.7676 5.34277 13.3352C5.03092 13.9026 4.74842 14.4855 4.49805 15.0813C3.99499 16.2744 3.61804 17.5163 3.37207 18.7864C3.88851 17.4371 4.36406 15.8901 5.03906 14.4368C5.71414 12.9842 6.56413 11.6591 7.53125 10.8713C6.812 11.7762 6.17043 12.7396 5.6123 13.7502C3.93211 16.798 3.05445 20.2176 3.06152 23.6917L2.94531 22.6575C2.90287 23.0314 2.8764 23.4079 2.86426 23.7844C2.853 24.1618 2.85802 24.5396 2.87793 24.9153C2.89786 25.2919 2.93434 25.6682 2.98633 26.0422C3.03832 26.4155 3.10431 26.7874 3.1875 27.1555C3.27068 27.5235 3.36239 27.8896 3.46289 28.2542C3.56342 28.6179 3.67218 28.9805 3.79004 29.3391C3.90783 29.6975 4.0347 30.0532 4.16895 30.4065C4.30413 30.7591 4.44796 31.1096 4.59961 31.4553C4.34743 30.8413 4.12511 30.2139 3.93359 29.5784C3.74124 28.9429 3.58028 28.2977 3.45117 27.6467C3.32212 26.996 3.22514 26.3392 3.16016 25.679C3.09516 25.0185 3.06239 24.3547 3.06152 23.6917C3.19757 24.8784 3.32841 26.1273 3.60742 27.6116C3.60739 26.7791 3.47809 25.6189 3.48242 24.4631C3.4599 24.0848 3.44922 23.7065 3.44922 23.3274C3.44922 22.949 3.46098 22.5701 3.48438 22.1917C3.50777 21.8134 3.54198 21.4365 3.58789 21.0608C3.63381 20.6851 3.69241 20.31 3.76172 19.9377C3.67419 20.4881 3.6166 21.0444 3.58887 21.6008C3.56116 22.1571 3.56376 22.7154 3.59668 23.2717C3.62961 23.828 3.69246 24.3825 3.78516 24.9319C3.87788 25.4823 3.9996 26.0271 4.15039 26.5637C3.77429 23.4961 4.00212 20.2667 5.05762 17.3694C4.93633 17.7709 4.82783 18.1757 4.7334 18.5833C4.63981 18.9917 4.55891 19.403 4.49219 19.8167C4.42546 20.2303 4.37309 20.6466 4.33496 21.0637C4.29597 21.4808 4.27212 21.8988 4.26172 22.3176C4.20799 23.028 4.19504 23.7413 4.22363 24.4534C4.25224 25.1653 4.32171 25.875 4.43262 26.5784C4.54354 27.2826 4.69512 27.9801 4.88574 28.6663C5.06989 29.3261 5.29154 29.9761 5.54785 30.6116C5.60436 30.7377 5.66066 30.8649 5.71875 30.9915C5.83309 31.2528 5.95253 31.5125 6.07812 31.7678C6.20378 32.0241 6.33573 32.2773 6.47266 32.5276C6.74769 33.0277 7.04599 33.5147 7.36621 33.9875C7.51612 34.1922 7.67303 34.3917 7.83594 34.5852C7.99968 34.7795 8.16983 34.9684 8.3457 35.1506C8.52249 35.333 8.70659 35.5087 8.89551 35.679C9.05667 35.8235 9.22313 35.9619 9.39258 36.0969C9.16765 35.8653 8.94765 35.6295 8.7334 35.3879C8.49855 35.1222 8.26981 34.8504 8.04883 34.5735C7.60553 34.0193 7.19026 33.4437 6.80566 32.8479C6.86458 32.9261 6.92601 33.0037 6.98926 33.0793C7.05238 33.154 7.11702 33.228 7.18359 33.3C7.25117 33.3714 7.32056 33.4411 7.3916 33.509C7.46263 33.5769 7.53586 33.6427 7.61035 33.7063C7.33052 33.2902 7.06712 32.8629 6.81934 32.427C6.57149 31.991 6.34002 31.5453 6.12598 31.092C5.91195 30.6389 5.71464 30.177 5.53613 29.7092C5.35676 29.2412 5.19551 28.7666 5.05273 28.2864C4.90975 27.8031 4.78552 27.3143 4.68066 26.8215C4.57584 26.3289 4.49152 25.8318 4.4248 25.3323C4.35894 24.8335 4.31202 24.3305 4.28516 23.8274C4.25744 23.3244 4.25046 22.8206 4.26172 22.3176C4.33365 21.3854 4.47497 20.4598 4.68555 19.5491C4.89522 18.6385 5.17256 17.7444 5.51562 16.8743C5.85962 16.004 6.2667 15.1599 6.73633 14.3499C7.20516 13.5397 7.73536 12.7643 8.32031 12.0325C7.95808 12.4126 7.61665 12.8115 7.29688 13.2278C6.97712 13.644 6.67813 14.0755 6.4043 14.5227C6.13144 14.9697 5.88159 15.4308 5.65723 15.9036C5.43278 16.3774 5.23289 16.8622 5.05957 17.3567C5.26839 16.6653 5.51921 15.9866 5.80859 15.3245C6.0989 14.6623 6.42835 14.0173 6.79492 13.3938C7.16143 12.7704 7.5655 12.1691 8.00391 11.593C8.4423 11.0178 8.91472 10.4687 9.41895 9.94849C9.9207 9.42904 10.4552 8.94066 11.0176 8.48657C11.5808 8.03341 12.1719 7.61556 12.7871 7.23462C13.4024 6.8545 14.0416 6.51206 14.7002 6.21021C15.3577 5.9085 16.0343 5.64829 16.7246 5.42993C16.073 5.89038 15.2665 6.44957 14.752 6.97192C14.8381 6.91674 14.9235 6.86048 15.0117 6.80786C15.1607 6.71844 15.3134 6.63271 15.4668 6.55103C15.621 6.46936 15.7769 6.39168 15.9346 6.3186C16.0932 6.24464 16.253 6.17596 16.415 6.1106L16.7119 6.00317C16.3452 6.16326 15.9828 6.33403 15.626 6.51489C15.4476 6.60511 15.2705 6.69784 15.0947 6.79321C14.9699 6.86097 14.8461 6.93111 14.7227 7.00122C14.5568 7.17286 14.4236 7.34105 14.3389 7.49927C14.461 7.62052 16.0453 6.9099 15.1914 7.45825C13.6801 8.5152 12.4616 9.46015 11.5664 10.3821C10.6722 11.304 10.1255 12.1809 10.1143 13.0452C10.1468 13.233 10.95 12.7293 11.6992 12.4172C12.4497 12.1042 13.0858 11.9355 12.7461 12.3948C12.5035 12.6716 12.2691 12.9557 12.043 13.2463C11.8169 13.5369 11.5995 13.8345 11.3916 14.1379C11.1837 14.4415 10.9837 14.7511 10.7939 15.0667C10.605 15.3814 10.4246 15.7036 10.2539 16.0295C10.1829 16.143 10.1144 16.2572 10.0469 16.3723C9.98016 16.4884 9.91492 16.6052 9.85254 16.7239C9.72742 16.9599 9.61186 17.2009 9.50488 17.4456C9.49539 17.473 9.48653 17.5014 9.48047 17.5305C9.47442 17.5588 9.46952 17.5883 9.46777 17.6174C9.46518 17.6466 9.46519 17.6761 9.46777 17.7053C9.46951 17.7345 9.47343 17.7639 9.47949 17.7922C9.34618 18.1659 9.22451 18.5438 9.11523 18.925C9.0052 19.306 8.90816 19.6914 8.82324 20.0784C8.65193 20.853 8.53044 21.638 8.45996 22.428C8.41593 22.7953 8.39338 23.1602 8.38184 23.5266C8.47116 22.8974 8.58925 22.2658 8.73828 21.5569C8.7029 21.4175 8.7379 21.1411 8.6748 20.8645C8.70076 20.8284 8.72686 20.792 8.75195 20.7551C8.77708 20.7181 8.80093 20.6807 8.8252 20.6428C8.84945 20.6059 8.87396 20.5682 8.89648 20.5295C8.91986 20.4917 8.94233 20.453 8.96484 20.4143C8.86779 20.8847 8.79223 21.3599 8.74023 21.8372C8.68741 22.3143 8.65819 22.7931 8.65039 23.2737C8.64346 23.7534 8.65819 24.2333 8.69629 24.7122C8.73355 25.1903 8.79464 25.6671 8.87695 26.1409C8.84491 26.0068 8.81494 25.8725 8.78809 25.7375C8.76213 25.6027 8.73854 25.4679 8.71777 25.3323C8.69784 25.1964 8.68075 25.0598 8.66602 24.9231C8.6513 24.7864 8.64061 24.6495 8.63281 24.512L8.5791 24.3469C8.55917 24.2902 8.53598 24.235 8.51172 24.1799C8.4867 24.126 8.45997 24.0721 8.43066 24.0208C8.40121 23.9683 8.36874 23.9164 8.33496 23.8674C8.34747 23.767 8.36196 23.6668 8.37598 23.5667C8.36581 23.6062 8.3558 23.646 8.34277 23.6848C8.32808 23.7277 8.31209 23.7708 8.29395 23.8137C8.27661 23.8559 8.25713 23.8984 8.23633 23.9397C8.21557 23.9809 8.19414 24.0213 8.16992 24.0608C8.25831 24.2964 8.33333 24.5306 8.39746 24.762C8.41132 25.0121 8.43126 25.2606 8.45898 25.509C8.48672 25.7576 8.52079 26.0054 8.56152 26.2522C8.60312 26.499 8.65059 26.7443 8.70605 26.9885C8.76064 27.2319 8.82218 27.4743 8.89062 27.7151C8.90969 27.8553 8.93081 27.9947 8.95508 28.134C8.97933 28.2733 9.00559 28.4116 9.03418 28.55C9.06278 28.6876 9.09413 28.8264 9.12793 28.9631C9.16171 29.1006 9.19725 29.2365 9.23535 29.3723C9.29155 29.3344 9.33736 29.2152 9.43848 29.2844C9.56067 29.5734 9.69164 29.8584 9.83203 30.1379C9.97326 30.4182 10.1228 30.6933 10.2822 30.9641C10.4408 31.2341 10.6073 31.4994 10.7832 31.759C10.96 32.0179 11.1455 32.2711 11.3379 32.5188C11.3985 32.6246 11.4575 32.7316 11.5146 32.8391C11.5718 32.9465 11.6259 33.0553 11.6787 33.1653C11.7324 33.2744 11.7835 33.3855 11.832 33.4963C11.8814 33.6072 11.9296 33.7197 11.9746 33.8323C12.1907 33.9242 12.4207 34.0594 12.667 34.2209C12.5394 34.1033 12.4074 33.9895 12.2656 33.9221C12.2821 33.9041 12.2977 33.8853 12.3115 33.8655C12.3378 33.8254 12.3583 33.7814 12.3721 33.7356C12.3781 33.7133 12.3833 33.6894 12.3867 33.6663C12.6766 34.01 12.9807 34.3321 13.3018 34.6653C13.6842 34.9448 14.0976 35.2569 14.541 35.5647C14.7871 35.7461 15.0407 35.918 15.2998 36.0823C15.5579 36.2456 15.8234 36.3999 16.0928 36.5452C16.2312 36.6198 16.3715 36.6907 16.5127 36.76C16.5526 36.5925 16.5988 36.4263 16.6514 36.262C16.9711 35.1956 17.4203 34.2917 17.6621 33.2864C17.8172 32.5951 18.0018 31.9114 18.2158 31.2356C18.4298 30.5607 18.6721 29.8947 18.9424 29.2395C19.213 28.5847 19.512 27.9412 19.8379 27.3118C20.1637 26.6814 20.5168 26.0663 20.8955 25.4661C21.2603 24.8899 21.6453 24.3262 22.0508 23.7776C22.4572 23.2295 22.8841 22.6967 23.3301 22.1799C23.7755 21.6631 24.2411 21.1623 24.7246 20.679C25.0085 20.395 25.2995 20.1181 25.5957 19.8469C25.4174 20.0103 25.2412 20.1759 25.0674 20.344C24.6922 20.7077 24.3261 21.0827 23.9717 21.467C23.6173 21.8514 23.2752 22.2466 22.9434 22.6516C22.8641 22.7483 22.7869 22.8468 22.709 22.9446C22.9268 22.6756 23.1512 22.4121 23.3818 22.1536C23.6287 21.876 23.883 21.6049 24.1445 21.3411C24.4062 21.0762 24.6756 20.8187 24.9512 20.5676C25.2293 20.3157 25.5136 20.0696 25.8047 19.8323C26.0949 19.5941 26.392 19.3636 26.6943 19.1409C26.9968 18.9181 27.3054 18.7026 27.6191 18.4954C27.9328 18.2882 28.2522 18.0886 28.5762 17.8977C28.4618 18.0103 28.3453 18.1215 28.2275 18.2307C28.1097 18.3399 27.9896 18.4472 27.8691 18.553C27.7487 18.6588 27.6269 18.7633 27.5029 18.8665C27.3799 18.9688 27.2544 19.0695 27.1279 19.1692C26.6002 19.619 26.1493 20.0693 26.0791 20.3479C25.3817 20.9734 24.7149 21.6317 24.0811 22.3206C23.4468 23.0085 22.8451 23.7264 22.2793 24.4719C21.7144 25.2174 21.1846 25.9888 20.6924 26.7834C20.201 27.579 19.7473 28.3971 19.334 29.2356C18.9189 30.0766 18.5484 30.9397 18.2217 31.8186C17.8959 32.6973 17.6148 33.5922 17.3809 34.4993C17.1743 35.3017 17.0067 36.1133 16.874 36.9299C16.8884 36.9364 16.9026 36.944 16.917 36.9504C17.1959 37.0759 17.48 37.1924 17.7676 37.2981V37.2805C18.0266 37.3811 18.2896 37.4749 18.5547 37.5618C18.8189 37.6486 19.086 37.7288 19.3555 37.801C19.3908 37.8107 19.4265 37.819 19.4619 37.8284C19.4856 37.5772 19.5129 37.3264 19.5469 37.0764C19.6535 36.2904 19.8105 35.5117 20.0176 34.7463C20.2238 33.9803 20.48 33.2288 20.7832 32.4954C21.0865 31.7626 21.438 31.0485 21.834 30.3596C21.457 31.0571 21.1209 31.7757 20.8271 32.511C20.5343 33.2471 20.2834 33.9984 20.0771 34.762C19.87 35.5265 19.7088 36.3016 19.5918 37.0842C19.5547 37.3346 19.524 37.5857 19.4961 37.8372C19.7723 37.9096 20.0503 37.9744 20.3301 38.0315C20.3385 37.8942 20.3454 37.7565 20.3564 37.6194C20.3972 37.1009 20.455 36.5838 20.5312 36.0696C20.6552 35.4333 20.8123 34.8038 21.0029 34.1838C21.1927 33.5639 21.4163 32.9544 21.6719 32.3577C21.9266 31.7609 22.2141 31.1783 22.5312 30.6116C22.8484 30.0448 23.1962 29.4949 23.5723 28.9651C22.9891 29.9669 22.4818 31.0107 22.0547 32.0872C21.6267 33.1635 21.2802 34.2703 21.0176 35.3977C20.8118 36.2808 20.6579 37.1755 20.5566 38.0764C20.7002 38.1035 20.844 38.1296 20.9883 38.1526C21.0316 38.1724 21.0757 38.1935 21.1182 38.2141C21.1605 38.2355 21.2027 38.2573 21.2441 38.2795C21.2866 38.3019 21.3284 38.3247 21.3691 38.3479C21.4107 38.3711 21.4515 38.3952 21.4922 38.4202C21.7841 38.3531 22.0761 38.3713 22.2217 38.3284C23.1272 38.4634 23.8907 38.5693 24.6836 38.6252C24.7356 38.5883 24.789 38.5534 24.8428 38.5208C24.9514 38.4565 25.0654 38.4015 25.1836 38.3567C25.2425 38.3343 25.3036 38.3133 25.3643 38.2961C25.6524 38.2649 25.9391 38.2215 26.2236 38.1663C26.3658 38.1387 26.5082 38.109 26.6494 38.0754C26.7897 38.0419 26.9299 38.0056 27.0693 37.9661C27.2331 37.9291 27.3956 37.8903 27.5576 37.8499C27.7196 37.8086 27.8818 37.7655 28.042 37.72C28.203 37.6744 28.3622 37.6261 28.5215 37.5754C28.6809 37.5256 28.8403 37.4723 28.998 37.4172C29.5369 37.2298 30.0667 37.0154 30.583 36.7747C31.6175 36.2916 32.5999 35.7053 33.5146 35.0247C33.9713 34.6841 34.4107 34.3212 34.8301 33.9368C34.8541 33.9385 34.8782 33.9405 34.9014 33.9456C34.9255 33.9507 34.9494 33.9575 34.9727 33.9661C34.9952 33.9747 35.0184 33.9842 35.04 33.9954C35.0616 34.0074 35.0826 34.0208 35.1016 34.0354C35.2557 33.6907 35.6588 33.3759 35.8037 33.0793C35.79 33.1471 35.8038 33.2007 35.8418 33.2239C35.8886 33.1396 35.9373 33.0566 35.9893 32.9758C36.0412 32.8959 36.0952 32.8169 36.1523 32.7395C36.2087 32.6621 36.2686 32.586 36.3301 32.5129C36.3916 32.439 36.4558 32.3678 36.5225 32.2991C36.5875 32.2363 36.6516 32.173 36.7148 32.1077C36.778 32.0433 36.8397 31.9774 36.8994 31.9104C36.9592 31.8425 37.018 31.7739 37.0752 31.7034C37.1323 31.6338 37.1877 31.5635 37.2422 31.4915C37.2638 31.4426 37.2837 31.3927 37.3027 31.343C37.3227 31.2931 37.3411 31.2424 37.3584 31.1917C37.3748 31.1411 37.3916 31.0907 37.4062 31.0393C37.4219 30.9877 37.4362 30.9356 37.4492 30.884C37.5098 30.7964 37.5668 30.706 37.623 30.6184C38.5069 29.847 38.8127 28.7495 39.1523 27.5842C39.2624 27.2945 39.3645 27.0012 39.459 26.7063C39.5526 26.4105 39.6386 26.1118 39.7148 25.8108C39.7919 25.5107 39.86 25.2079 39.9189 24.9036C39.9787 24.5991 40.0307 24.2926 40.0723 23.9856C40.1884 23.0056 40.4466 22.6167 40.5801 21.8987L40.6211 22.4895C40.6315 22.6847 40.6379 22.8805 40.6396 23.0764C40.6431 23.4676 40.63 23.8589 40.6006 24.2493C40.5703 24.6388 40.5232 25.0282 40.46 25.4143C40.3958 25.8004 40.3158 26.1845 40.2188 26.5637C39.8565 28.1176 39.3266 29.5933 38.8916 31.0139C39.8318 29.5545 40.5841 27.5954 41.0078 25.9202C41.4316 24.2449 41.6333 22.8616 42.0449 22.5735C42.4573 22.2856 42.5732 23.5791 42.2969 25.2903C42.2587 25.5182 42.2177 25.7456 42.1709 25.9709C42.1241 26.197 42.073 26.4223 42.0176 26.6458C41.9621 26.8701 41.901 27.0929 41.8369 27.3147C41.7728 27.5366 41.7037 27.7574 41.6309 27.9758C41.3406 28.8761 41.001 29.6963 40.7246 30.3713C40.8674 30.169 40.9181 30.0925 40.9941 29.9817C40.9514 30.0509 40.912 30.1214 40.877 30.1946C40.8354 30.2788 40.7977 30.3658 40.7656 30.4543C40.7336 30.5427 40.7061 30.6329 40.6836 30.7239C40.7572 30.6208 40.8283 30.5162 40.8984 30.4114C40.9686 30.3056 41.0369 30.1986 41.1045 30.0911C41.1712 29.9836 41.2376 29.8751 41.3018 29.7659C41.365 29.6567 41.4277 29.5466 41.4883 29.4358C41.5368 29.3387 41.5889 29.2433 41.6426 29.1497C41.6963 29.0559 41.7526 28.9625 41.8115 28.8713C41.8703 28.7812 41.9321 28.6923 41.9961 28.6047C42.0602 28.517 42.1269 28.4312 42.1953 28.3469C42.1953 28.5919 42.1955 28.8398 42.1816 29.0891C42.8003 28.205 43.3484 26.768 43.6924 25.2659C44.0364 23.7634 44.1955 22.2075 44.3975 21.0852C44.3411 21.7954 44.2586 22.504 44.1494 23.2083C44.0402 23.9126 43.9043 24.6139 43.7432 25.3079C43.5811 26.0027 43.3938 26.6912 43.1807 27.3723C42.9675 28.0533 42.7283 28.7259 42.4648 29.3889C42.1797 30.1001 41.8593 30.7966 41.5049 31.4768C41.1496 32.1561 40.762 32.8187 40.3418 33.4602C39.4994 34.7436 38.5304 35.9413 37.4502 37.0354C36.3248 38.1727 35.072 39.1785 33.7158 40.0325C32.3592 40.8862 30.9079 41.5823 29.3916 42.1086C28.6378 42.37 27.8695 42.5867 27.0889 42.7561C25.5275 43.0965 23.9302 43.2485 22.332 43.2092C21.534 43.1903 20.7375 43.1234 19.9473 43.009C19.0138 42.8951 18.0892 42.7223 17.1777 42.4973C17.3155 43.3032 17.4849 44.104 17.6846 44.8967C17.8899 45.7094 18.128 46.514 18.3975 47.3069C18.6678 48.1007 18.97 48.8829 19.3027 49.6526C19.9781 51.2183 20.7959 52.7197 21.7461 54.1379C22.221 54.8465 22.7284 55.5335 23.2656 56.1965C23.8029 56.8601 24.3706 57.4996 24.9668 58.1116C26.7633 59.9576 28.8233 61.5322 31.0801 62.7854C31.8313 63.2024 32.6022 63.5828 33.3906 63.925C34.9298 64.5906 36.5346 65.0955 38.1787 65.4329C39.0002 65.6023 39.8305 65.7293 40.665 65.8127C41.5003 65.897 42.3382 65.9375 43.1777 65.9358C41.3467 65.6185 39.2418 65.4018 37.2236 64.9133C35.2055 64.4257 33.3072 63.6792 32.0654 62.6516C33.3947 63.3326 34.7791 63.9022 36.2041 64.3538C37.6289 64.8058 39.0894 65.138 40.5703 65.3469C42.0513 65.5568 43.5482 65.6425 45.0439 65.6038C46.5387 65.5642 48.0282 65.4008 49.4961 65.1145L48.208 65.4983C48.695 65.4605 49.1804 65.4026 49.6631 65.3235C50.1456 65.2453 50.6244 65.1464 51.0986 65.0286C51.5725 64.9099 52.0423 64.7729 52.5049 64.6165C52.9668 64.4591 53.4239 64.2835 53.8711 64.0891C54.3209 63.8939 54.7657 63.6879 55.2051 63.4729C55.6443 63.2571 56.0789 63.0316 56.5068 62.7952C56.9357 62.5587 57.3576 62.312 57.7744 62.0549C58.1912 61.7987 58.6021 61.5331 59.0059 61.2571C58.2849 61.7258 57.5409 62.1596 56.7783 62.5569C56.015 62.9541 55.2335 63.3145 54.4355 63.637C53.6374 63.9595 52.8239 64.2433 51.998 64.4875C51.1723 64.7326 50.3349 64.9375 49.4893 65.1008C50.971 64.6511 52.5304 64.1676 54.3535 63.4504C53.2955 63.6749 51.8459 64.1019 50.3643 64.3831C49.8886 64.5043 49.4074 64.6115 48.9248 64.7043C48.4421 64.7972 47.9557 64.8762 47.4678 64.9407C46.9808 65.0043 46.4913 65.0539 46 65.0891C45.5095 65.1235 45.0176 65.1446 44.5254 65.1506C45.249 65.124 45.9707 65.0595 46.6865 64.9563C48.1199 64.75 49.527 64.3921 50.8838 63.8889C51.5615 63.6369 52.2257 63.3491 52.873 63.0266C49.0574 64.253 44.8836 64.7674 40.9346 64.1516C41.477 64.2058 42.0204 64.242 42.5654 64.26C43.1097 64.2781 43.655 64.277 44.1992 64.2581C44.7442 64.2391 45.2877 64.2027 45.8301 64.1477C46.3153 64.0984 46.7985 64.0305 47.2803 63.9514C46.1318 64.0759 44.9767 64.1209 43.8223 64.0833C42.6099 64.0437 41.4013 63.9151 40.208 63.6975C39.0148 63.4807 37.8392 63.1769 36.6914 62.7874C35.5436 62.3976 34.4268 61.9231 33.3496 61.3694C33.9241 61.7306 34.5167 62.0613 35.125 62.3606C35.7342 62.6599 36.3592 62.9265 36.9961 63.1604C37.6338 63.3934 38.2829 63.594 38.9414 63.76C39.5999 63.9251 40.2671 64.0553 40.9395 64.1516C40.0073 64.0591 39.0815 63.912 38.167 63.7102C37.2522 63.5093 36.3499 63.2542 35.4658 62.9465C34.5813 62.6397 33.7154 62.2806 32.874 61.8713C32.0325 61.4626 31.2164 61.0042 30.4297 60.4993C29.6443 59.998 28.8907 59.4486 28.1738 58.8547C27.4572 58.2605 26.7785 57.6232 26.1416 56.9456C25.5047 56.2679 24.9109 55.5517 24.3633 54.801C23.8157 54.0504 23.316 53.267 22.8672 52.4553C23.6183 53.1654 24.5368 54.0511 25.332 54.5667C25.2343 54.466 25.1383 54.3638 25.0439 54.26C24.8932 54.0941 24.7467 53.9239 24.6055 53.7502C24.4636 53.5767 24.3259 53.3987 24.1934 53.218C24.0609 53.037 23.9328 52.8526 23.8096 52.6653L23.5986 52.3215C23.8936 52.7433 24.2015 53.1566 24.5205 53.5608C24.6791 53.7629 24.8413 53.9626 25.0068 54.1604C25.1292 54.3074 25.2543 54.4518 25.3799 54.5959C25.6323 54.7559 25.8713 54.8772 26.0879 54.9417C26.2145 54.7559 24.918 52.9428 25.8281 53.8821C27.5474 55.517 29.0542 56.8181 30.4355 57.7219C31.8178 58.6258 33.0732 59.0887 34.1885 58.8909C34.4133 58.8023 33.5804 57.9174 33.001 57.0657C32.4213 56.2126 32.047 55.4407 32.7148 55.7561C33.1273 55.9926 33.5473 56.2185 33.9736 56.4309C34.399 56.6424 34.8311 56.842 35.2686 57.0286C36.1448 57.4011 37.0432 57.7214 37.958 57.9875C38.1199 58.0494 38.2828 58.1085 38.4473 58.1643C38.6111 58.2202 38.777 58.2726 38.9434 58.3225C39.1097 58.3715 39.2772 58.4182 39.4453 58.4612C39.6133 58.5041 39.7824 58.5442 39.9521 58.5803C40.0354 58.625 40.1991 58.5811 40.4053 58.5295C42.8741 58.9432 45.2515 58.7832 46.5635 58.6663C47.052 58.6319 47.5371 58.5673 48.0195 58.4934C48.0784 58.496 48.1385 58.5002 48.1982 58.5071C48.2571 58.514 48.3161 58.5233 48.375 58.5344C48.4331 58.5456 48.4917 58.5591 48.5498 58.5754C48.6067 58.5917 48.6636 58.6096 48.7188 58.6301C48.9977 58.4616 49.2789 58.309 49.5596 58.1809C49.8759 58.1009 50.1899 58.0126 50.501 57.9163C50.8121 57.8191 51.1209 57.7134 51.4268 57.5999C51.7317 57.4855 52.0341 57.3643 52.332 57.2336C52.6309 57.1038 52.9257 56.9659 53.2168 56.8206C53.3901 56.7612 53.5627 56.6995 53.7334 56.635C53.9049 56.5705 54.0752 56.5034 54.2441 56.4329C54.4129 56.3633 54.5809 56.2907 54.7471 56.2151C54.9134 56.1394 55.0784 56.0605 55.2422 55.9788C55.179 55.916 55.0164 55.8891 55.082 55.7405C55.4191 55.5178 55.7488 55.2824 56.0703 55.0374C56.3918 54.7923 56.7057 54.5375 57.0107 54.2717C57.3157 54.006 57.6116 53.7311 57.8984 53.4465C58.1852 53.1619 58.4626 52.8674 58.7295 52.5647C58.8489 52.4625 58.9699 52.3628 59.0928 52.2649C59.2158 52.1669 59.3413 52.0705 59.4678 51.9768C59.5943 51.8831 59.7225 51.7918 59.8516 51.7024C59.9815 51.613 60.1125 51.5248 60.2451 51.4397C60.3154 51.1195 60.4447 50.7653 60.6094 50.3801C60.4739 50.5922 60.3416 50.8119 60.2832 51.0305L60.2002 50.9905C60.1717 50.9794 60.1415 50.97 60.1113 50.9631C60.081 50.9563 60.0497 50.9511 60.0186 50.9485C59.9874 50.9459 59.956 50.9458 59.9248 50.9475C60.2944 50.5024 60.6468 50.0265 60.9766 49.5432C60.9774 49.5383 60.9785 49.5334 60.9795 49.5286C60.9797 49.5321 60.9784 49.5357 60.9785 49.5393C60.9811 49.5355 60.9847 49.5324 60.9873 49.5286L60.9805 49.5686C60.9849 49.5594 60.9897 49.5505 60.9941 49.5413C60.994 49.5318 60.995 49.5224 60.9941 49.5129C61.0127 49.4858 61.0294 49.4572 61.0479 49.4299C61.2942 48.9199 61.5671 48.371 61.8311 47.7903C62.4905 46.3395 63.0652 44.7127 63.248 43.3118H63.2188C63.2846 42.9603 63.3408 42.6071 63.3867 42.2522C63.4326 41.8971 63.4683 41.5407 63.4951 41.1848C63.522 40.8279 63.5391 40.4693 63.5469 40.1116C63.5538 39.754 63.5512 39.3959 63.5391 39.0383C63.6023 38.7977 63.6746 38.5638 63.7646 38.342C63.6088 37.9931 63.56 37.6181 63.4717 37.4426C63.4214 36.2817 63.3646 35.2833 63.2441 34.2737C63.1289 34.1164 62.7911 33.8617 62.6602 33.5042C62.6047 33.3271 62.5458 33.1513 62.4834 32.9768C62.4202 32.8023 62.3544 32.6283 62.2842 32.4563C62.214 32.2844 62.1396 32.114 62.0625 31.9456C61.9854 31.777 61.9034 31.6087 61.8193 31.4436C61.7328 31.2478 61.6425 31.0529 61.5508 30.8596C61.4581 30.6664 61.3625 30.4742 61.2646 30.2834C61.1667 30.0934 61.0669 29.9026 60.9629 29.7151C60.8598 29.5277 60.7527 29.3414 60.6436 29.1565C60.2719 28.5256 59.868 27.9136 59.4336 27.3235C58.9994 26.7332 58.5349 26.1652 58.042 25.6223C57.549 25.079 57.0282 24.5616 56.4824 24.0715C55.9365 23.5813 55.365 23.1185 54.7705 22.6868C54.7633 22.6251 54.7653 22.5625 54.7754 22.5012C54.7806 22.4703 54.7883 22.4396 54.7979 22.4104C54.8074 22.3812 54.8182 22.3519 54.832 22.3245C54.3564 22.2135 53.8538 21.787 53.4414 21.676C53.5295 21.676 53.5968 21.6563 53.6152 21.594C53.4975 21.5562 53.3807 21.5137 53.2646 21.469C53.1494 21.4243 53.0346 21.375 52.9229 21.3225C52.8103 21.2701 52.699 21.2148 52.5898 21.1555C52.4817 21.0962 52.3742 21.0333 52.2695 20.968C52.1744 20.9002 52.0782 20.8353 51.9805 20.7717C51.8825 20.7081 51.7822 20.6455 51.6816 20.5862C51.5813 20.5269 51.4791 20.4693 51.377 20.4143C51.2739 20.3593 51.1701 20.3058 51.0645 20.2551C50.9969 20.2414 50.9278 20.2282 50.8594 20.217C50.7902 20.2059 50.7216 20.1962 50.6523 20.1868C50.5839 20.1782 50.5146 20.1702 50.4453 20.1633C50.376 20.1565 50.3066 20.151 50.2373 20.1467C50.111 20.0926 49.9838 20.0479 49.8574 19.9963C48.6563 19.0744 47.181 18.9615 45.6133 18.8196C45.2173 18.7525 44.8184 18.6973 44.4189 18.6526C44.0195 18.6079 43.618 18.5744 43.2168 18.552C42.8157 18.5288 42.4137 18.5168 42.0117 18.5168C41.6097 18.5168 41.2077 18.5286 40.8057 18.55C39.5258 18.6446 38.9657 18.4176 38.0195 18.427L38.3447 18.3225C40.1099 17.8139 42.0903 17.6575 44.0205 17.7317C46.0803 17.8099 48.0984 18.1097 50.0195 18.3049C47.9311 17.482 45.2509 17.0192 42.9961 16.8997C40.7421 16.7801 38.9454 16.868 38.4766 16.4182C38.008 15.9685 39.628 15.518 41.875 15.4329C42.1748 15.4243 42.4745 15.4226 42.7734 15.426C43.0732 15.4295 43.3721 15.4388 43.6719 15.4534C43.9708 15.468 44.2703 15.4882 44.5684 15.5149C44.8664 15.5407 45.1647 15.5736 45.4619 15.6106C46.6645 15.7551 47.8082 15.9791 48.7354 16.1545C48.2669 15.9457 48.2667 15.9454 47.791 15.7502C48.2684 15.9454 48.7355 16.1482 49.1973 16.1243C48.7477 15.9253 48.2902 15.7445 47.8252 15.5842C47.6701 15.5309 47.5143 15.4799 47.3574 15.4309C46.6923 15.2066 46.067 15.0061 45.793 14.8127C46.1074 14.7474 46.4216 14.6954 46.7412 14.6438C45.5508 14.1237 43.7635 13.7953 41.9062 13.7073C41.9576 13.8217 42.0086 13.9365 42.0576 14.052C42.1703 14.3195 42.2772 14.5899 42.376 14.8625C42.3066 14.7593 42.2386 14.654 42.1719 14.5491C42.1052 14.4442 42.0408 14.3373 41.9775 14.2307C41.9143 14.1232 41.8528 14.0157 41.793 13.9065C41.7542 13.8372 41.7168 13.767 41.6797 13.6965C41.6195 13.6943 41.5593 13.6904 41.499 13.6887C39.4989 13.632 37.475 13.8099 35.9932 13.8323C36.9134 13.7282 37.8363 13.6575 38.7617 13.6213C39.6864 13.5844 40.6135 13.5827 41.5391 13.6145C41.5719 13.6156 41.6048 13.6172 41.6377 13.6184C41.6306 13.6047 41.6233 13.5911 41.6162 13.5774C41.351 13.1276 41.0748 12.7071 40.8643 12.6125C40.4882 11.9933 40.0827 11.3912 39.6494 10.8098C39.2151 10.2285 38.7538 9.66753 38.2666 9.12915C37.2901 8.0532 36.2125 7.07199 35.0488 6.19849C34.4653 5.7602 33.8593 5.35217 33.2334 4.97583C32.6077 4.5983 31.9628 4.25394 31.3008 3.94263C30.6396 3.6313 29.9623 3.35312 29.2725 3.1106C28.582 2.86818 27.8802 2.66157 27.1689 2.49048C27.4183 2.47502 27.6686 2.47647 27.918 2.49536C28.1666 2.51514 28.4149 2.55156 28.6592 2.60571C28.9027 2.65903 29.143 2.73088 29.377 2.8186C29.6109 2.90571 29.8383 3.00927 30.0576 3.12817C30.8298 3.52894 31.4558 4.00399 32.1924 4.33423L32.5713 4.49341C32.9481 4.66589 33.3193 4.85106 33.6846 5.04712C34.1716 5.3077 34.6476 5.58987 35.1104 5.89087C35.573 6.19269 36.0232 6.51302 36.459 6.85181C36.8948 7.19146 37.3152 7.54819 37.7207 7.9231C38.1089 8.28425 38.4833 8.65931 38.8438 9.04712C39.2042 9.43575 39.5498 9.83766 39.8799 10.2512C40.21 10.6648 40.5243 11.0918 40.8232 11.5286C41.1213 11.9654 41.4046 12.4138 41.6689 12.8713C41.4644 12.5222 41.2498 12.1791 41.0254 11.842C40.801 11.5049 40.5667 11.1742 40.3232 10.8508C40.0797 10.5275 39.8261 10.2113 39.5635 9.90259C39.4326 9.7482 39.2996 9.59531 39.1641 9.44458L39.0449 9.31567C39.1416 9.42262 39.237 9.53069 39.3311 9.63989C39.519 9.8591 39.7011 10.083 39.877 10.3108C40.0537 10.5386 40.2241 10.7716 40.3887 11.0081C40.5524 11.2445 40.7107 11.4866 40.8623 11.7307C41.014 11.9784 41.1611 12.2301 41.2998 12.4846C41.4392 12.7399 41.5727 12.9978 41.6982 13.259C41.7575 13.3811 41.8148 13.5044 41.8711 13.6282C42.6847 13.6634 43.4976 13.724 44.3076 13.8118C45.2279 13.9124 46.144 14.0473 47.0547 14.2141C48.0302 14.3981 48.9972 14.6299 49.9502 14.9084C50.9034 15.1862 51.8425 15.5123 52.7637 15.8821C53.684 16.2527 54.5862 16.6688 55.4658 17.1272C56.3454 17.5861 57.2009 18.0889 58.0303 18.6321C58.8942 19.1979 59.7257 19.8125 60.5186 20.4729C61.3115 21.1334 62.066 21.8377 62.7783 22.5842C63.4897 23.3298 64.158 24.1157 64.7793 24.9377C65.3998 25.7599 65.9735 26.6165 66.4961 27.5032C67.0151 28.3871 67.4797 29.3015 67.8887 30.2405C68.2977 31.1795 68.6494 32.1421 68.9414 33.1233C69.2343 34.1046 69.4661 35.1028 69.6377 36.1116C69.8093 37.1203 69.9202 38.1388 69.9688 39.1604C70.1221 41.3352 70.0347 43.519 69.708 45.6741C69.3804 47.8292 68.8155 49.942 68.0234 51.9749C67.2314 54.007 66.2154 55.947 64.9961 57.759C63.7768 59.5711 62.3601 61.2462 60.7725 62.7512C60.5342 62.9481 60.2896 63.1385 60.041 63.3225C59.7923 63.5074 59.5394 63.6855 59.2812 63.8557C58.7648 64.1984 58.2301 64.5133 57.6797 64.7991C57.3426 64.9788 57.0021 65.1515 56.6572 65.3167C56.3125 65.4808 55.964 65.6367 55.6123 65.7854C55.2596 65.9342 54.9037 66.0748 54.5449 66.2073C54.1871 66.3397 53.8257 66.4643 53.4609 66.5803C48.894 68.3975 43.8165 69.0362 38.8232 68.5881C33.5129 67.9138 28.5352 65.537 24.5498 61.9973C20.5653 58.4567 17.4877 53.7347 15.7822 48.3616C15.4304 47.2934 15.3926 45.9271 15.624 45.5247C15.7367 45.3228 15.907 45.3548 16.1357 45.7502C16.3645 46.1459 16.6586 46.9199 17.1299 48.1604C17.5372 49.1786 17.9971 50.176 18.5049 51.1487C19.0118 52.1203 19.5679 53.0671 20.1709 53.9846C20.7739 54.9014 21.4228 55.7887 22.1143 56.6418C22.8066 57.4948 23.5407 58.3131 24.3145 59.093C24.0155 59.0285 23.528 58.5877 23.041 58.0657C22.9318 57.941 22.8216 57.8167 22.709 57.6946C22.4842 57.4506 22.2528 57.2119 22.0156 56.9797C21.897 56.8646 21.7763 56.7505 21.6543 56.6379C21.8691 56.9595 22.0929 57.2768 22.3242 57.5872C22.5556 57.8984 22.796 58.2029 23.043 58.5022C23.2899 58.8015 23.5441 59.0938 23.8066 59.3801C24.0684 59.6656 24.3377 59.9454 24.6133 60.218C24.888 60.4881 25.1684 60.7517 25.4561 61.0071C25.7438 61.2634 26.0391 61.5114 26.3398 61.7522C26.6396 61.9929 26.9461 62.2262 27.2588 62.4514C27.4088 62.5595 27.5604 62.6654 27.7129 62.7698C26.9807 62.2743 26.2715 61.7462 25.5898 61.1838C25.1713 60.839 24.7631 60.4826 24.3662 60.1145C23.9685 59.7465 23.5822 59.3662 23.207 58.9758C23.6949 59.4858 24.2024 59.9783 24.7275 60.4504C25.2518 60.9226 25.7946 61.3753 26.3535 61.8079C26.9125 62.2404 27.4869 62.6528 28.0762 63.0432C28.665 63.4344 29.2688 63.8038 29.8857 64.1497C31.1726 64.872 32.5195 65.4843 33.9111 65.9797C34.606 66.2274 35.3115 66.4467 36.0254 66.635C36.7394 66.8233 37.4616 66.9815 38.1895 67.1096C39.2518 67.3117 40.2172 67.7179 41.3428 67.9905C41.6651 68.0748 41.9931 68.1384 42.3232 68.178C42.6541 68.2175 42.9867 68.2338 43.3193 68.2278C43.653 68.2226 43.9851 68.1944 44.3145 68.1428C44.6427 68.0921 44.9684 68.0185 45.2871 67.9231C44.3106 67.9248 43.3336 67.8767 42.3623 67.7795C41.3909 67.6815 40.4251 67.5344 39.4688 67.3391C38.5123 67.1429 37.5661 66.8986 36.6348 66.6067C35.7032 66.3143 34.7875 65.9744 33.8906 65.5891C32.9981 65.2047 32.1243 64.7787 31.2725 64.3118C30.4207 63.8457 29.5914 63.3384 28.7891 62.7932C27.986 62.2481 27.21 61.6647 26.4629 61.0461C25.7159 60.427 24.999 59.7734 24.3145 59.0872C24.3186 59.0872 24.3219 59.0881 24.3252 59.0881H24.3486C24.3521 59.0881 24.356 59.0872 24.3604 59.0872C23.7711 58.5067 23.2099 57.8999 22.6787 57.2678C22.1475 56.6355 21.6462 55.9788 21.1768 55.3C20.7073 54.6211 20.2703 53.9206 19.8662 53.2014C19.4633 52.4817 19.0934 51.7437 18.7598 50.9905C19.213 51.9149 19.7652 52.8174 20.1768 53.6292C18.3792 50.0748 17.2619 46.2909 16.9453 42.4387C16.2852 42.2686 15.6317 42.0716 14.9883 41.844C13.3837 41.2769 11.8467 40.5366 10.4053 39.636C7.51311 37.8286 5.05801 35.4099 3.21582 32.553C2.98284 32.1342 2.77337 31.7025 2.58789 31.261C2.49435 31.0401 2.40759 30.8172 2.32617 30.592C2.24558 30.3667 2.16991 30.139 2.10059 29.9094C2.01309 29.6283 1.93181 29.3452 1.85645 29.0598C1.78196 28.7744 1.71276 28.4884 1.65039 28.2004C1.58886 27.9115 1.53388 27.6219 1.48535 27.3303C1.43686 27.0398 1.39489 26.7485 1.35938 26.4563C1.18744 25.5144 1.07085 24.563 1.01074 23.6077C0.950082 22.6531 0.947138 21.6948 1 20.7385C1.05294 19.7832 1.16154 18.8317 1.32617 17.8889C1.49169 16.9464 1.71173 16.0127 1.9873 15.0959C2.31839 14.1243 2.72349 13.179 3.19824 12.2678C3.67244 11.3569 4.21463 10.4822 4.82031 9.65161C5.42693 8.82084 6.09584 8.0368 6.82031 7.30493C7.54478 6.57393 8.32269 5.89628 9.14941 5.28052C10.0021 4.64506 10.8965 4.06697 11.8271 3.55103C12.7577 3.03419 13.7227 2.58053 14.7148 2.19263C15.7061 1.80483 16.7234 1.48255 17.7588 1.22974C18.7934 0.97691 19.8446 0.792594 20.9053 0.679932ZM63.8203 53.9954C63.5618 54.3652 63.2946 54.7288 63.0176 55.0852C62.7368 55.4464 62.4456 55.8011 62.1475 56.1477C61.8485 56.4942 61.541 56.8343 61.2256 57.1653C60.9103 57.4971 60.5856 57.8204 60.2539 58.135C60.3404 58.0423 60.4234 57.9469 60.5039 57.8499C60.6652 57.6543 60.815 57.4495 60.9521 57.2366C61.0206 57.1309 61.0861 57.0224 61.1484 56.9124C60.6864 57.3664 60.2076 57.8033 59.7129 58.2219C59.2178 58.6401 58.7074 59.0404 58.1826 59.4211C57.6575 59.8013 57.1175 60.1616 56.5654 60.5022C56.0127 60.8425 55.447 61.1621 54.8701 61.4602C54.2896 61.7594 53.6968 62.0366 53.0938 62.2903C52.4916 62.5439 51.8791 62.7745 51.2588 62.9817C50.6383 63.189 50.0084 63.3723 49.374 63.5305C48.7909 63.6765 48.2032 63.7999 47.6113 63.9045C48.4747 63.7984 49.3329 63.6485 50.1807 63.4495C51.9836 63.0268 53.7323 62.399 55.3906 61.5793C56.2189 61.1692 57.0224 60.7125 57.7979 60.2112L57.4512 60.4661C57.691 60.3105 57.9221 60.1419 58.1533 59.9778C58.4582 59.7715 58.7593 59.5571 59.0547 59.3362C59.3502 59.116 59.6407 58.8875 59.9258 58.6536C60.2099 58.4189 60.4899 58.1786 60.7627 57.9319C61.0357 57.6842 61.3037 57.4299 61.5654 57.1702C62.2406 56.4547 62.8387 55.6712 63.3496 54.8323C63.5167 54.5588 63.6732 54.2795 63.8203 53.9954ZM50.7207 57.4143C50.5552 57.4814 50.3888 57.5434 50.2207 57.6028C50.0526 57.6613 49.8826 57.7171 49.7119 57.7678C49.5421 57.8194 49.3697 57.8665 49.1973 57.9104L49.0645 57.9612C48.7806 58.0974 48.5701 58.353 48.4336 58.4456C47.4596 58.5109 46.4987 58.5157 45.3887 58.5071C45.2215 58.5879 44.8611 58.6169 44.5215 58.7561C44.3126 58.6615 44.0927 58.5853 43.8613 58.5071C44.487 58.514 45.1142 58.4913 45.7373 58.4397C46.3611 58.3881 46.9826 58.3077 47.5986 58.1985C48.2147 58.0893 48.8256 57.9514 49.4287 57.7854C50.0318 57.6194 50.626 57.4253 51.2109 57.2043C51.0489 57.2774 50.8853 57.3481 50.7207 57.4143ZM31.1279 53.385C31.7285 53.9543 32.3675 54.4839 33.0391 54.969C33.7114 55.4531 34.4152 55.8921 35.1465 56.2825C35.8779 56.6738 36.6358 57.0152 37.4131 57.3059C38.1903 57.5957 38.9866 57.8338 39.7959 58.0178V58.0461C38.4613 57.8208 36.9138 57.1973 35.5654 56.511C34.2181 55.8256 33.0353 55.1077 32.1221 54.885C32.0485 54.7552 31.9733 54.6254 31.8945 54.4973C31.8166 54.3693 31.7355 54.243 31.6523 54.1184C31.5692 53.9928 31.484 53.8694 31.3965 53.7473C31.309 53.6253 31.2197 53.5036 31.1279 53.385ZM68.1406 35.2454C68.2966 36.0004 68.453 36.7834 68.5752 37.5754L68.666 38.4612C68.6288 38.3976 68.5948 38.3318 68.5645 38.2639C68.5342 38.1969 68.5069 38.1283 68.4844 38.0579C68.4618 37.9873 68.4425 37.9153 68.4277 37.843C68.4131 37.771 68.4034 37.698 68.3965 37.6243C68.4511 38.3112 68.476 38.9991 68.4717 39.6877C68.4673 40.3757 68.4335 41.0649 68.3711 41.7502C68.3087 42.4356 68.2162 43.1186 68.0957 43.7971C67.9744 44.4747 67.825 45.1472 67.6465 45.8127C67.4645 46.4895 67.2561 47.159 67.0195 47.8186C66.7839 48.479 66.52 49.129 66.2314 49.7678C65.9429 50.4067 65.6277 51.0337 65.2881 51.6477C64.9484 52.2609 64.5835 52.8617 64.1953 53.4465C64.3088 53.118 64.4949 52.6706 64.5469 52.4719C64.3348 52.9785 64.1001 53.4707 63.8408 53.9612L64.1953 53.4426C64.0508 53.8378 64.0244 54.0688 64.5195 53.4426C64.7899 53.0892 65.0461 52.724 65.2861 52.3499C65.5261 51.9759 65.7502 51.5923 65.959 51.1995C66.1678 50.8073 66.3602 50.4059 66.5361 49.9983C66.7111 49.5908 66.8705 49.1755 67.0117 48.7551C67.6417 47.0188 68.1037 45.1849 68.5977 43.2688C68.8532 42.2592 68.9156 40.8489 68.7891 39.3518C68.8055 39.2848 68.816 39.2155 68.8203 39.1467C68.8255 39.078 68.8253 39.0084 68.8184 38.9397C68.8114 38.8709 68.7985 38.8026 68.7803 38.7356C68.7612 38.6695 68.7363 38.6039 68.7061 38.5413C68.6705 38.2199 68.6245 37.8968 68.5752 37.5754C68.5561 37.3785 68.5326 37.1817 68.5049 36.9856C68.4772 36.7898 68.4465 36.5947 68.4102 36.4006C68.3738 36.2063 68.3331 36.0122 68.2881 35.8196C68.243 35.627 68.1943 35.4353 68.1406 35.2454ZM19.1895 44.1917C19.3108 45.0069 19.4718 45.8168 19.6729 46.6174C19.873 47.4171 20.1114 48.2073 20.3887 48.9846C20.9424 50.5406 21.6462 52.0403 22.4902 53.4622C22.241 53.0642 22.0016 52.6603 21.7715 52.2512C21.5418 51.8419 21.3209 51.4268 21.1104 51.0071C20.9007 50.5875 20.6995 50.1637 20.5098 49.7346C20.3191 49.3063 20.1386 48.8726 19.9688 48.4348C19.799 47.9972 19.6482 47.5523 19.5156 47.1018C19.384 46.6513 19.2713 46.1957 19.1777 45.7366C19.0842 45.2765 19.0098 44.813 18.9561 44.3469C18.9015 43.8809 18.8663 43.4122 18.8516 42.9436L19.1895 44.1917ZM27.5186 48.4592C27.5931 48.6114 27.6702 48.7628 27.749 48.9124C27.8278 49.0628 27.9092 49.2117 27.9932 49.3586C28.0763 49.5065 28.1625 49.6528 28.25 49.7981C28.1097 49.7355 28.0689 49.8891 28.0039 49.9475L27.8027 49.4758C27.7386 49.315 27.6771 49.152 27.6182 48.9895C27.5593 48.8263 27.504 48.6622 27.4512 48.4973C27.3983 48.3322 27.3476 48.1661 27.3008 47.9993C27.371 48.1532 27.4432 48.307 27.5186 48.4592ZM25.9707 43.3879C26.0195 43.756 26.0805 44.1227 26.1533 44.4885C26.0285 44.2142 25.8962 43.9461 25.7402 43.677C25.7636 43.6246 25.7847 43.5719 25.8037 43.5178C25.8228 43.4645 25.8398 43.4098 25.8545 43.3547C25.8692 43.2999 25.8822 43.2444 25.8926 43.1887C25.903 43.1329 25.9109 43.0765 25.917 43.0198L25.9707 43.3879ZM20.457 42.1584C20.4988 42.1534 20.5401 42.1486 20.5811 42.1379C20.8322 42.1577 21.088 42.1717 21.3418 42.1829C21.4959 42.1983 21.6496 42.2094 21.8037 42.218C21.9579 42.2258 22.1134 42.2308 22.2676 42.2317C22.4218 42.2334 22.5762 42.231 22.7305 42.2258C22.8856 42.2198 23.04 42.2115 23.1934 42.1995C22.5911 42.1995 21.9649 42.1992 21.3418 42.1829L20.6494 42.1223C20.7038 42.1026 20.7583 42.0862 20.8145 42.0725C20.8708 42.0596 20.9272 42.0501 20.9844 42.0432C21.0416 42.0363 21.0992 42.0315 21.1572 42.0315C21.2142 42.0307 21.2712 42.0333 21.3291 42.0393C21.0326 42.0059 20.737 41.9645 20.4424 41.9172C20.4467 41.9977 20.4519 42.0781 20.457 42.1584ZM16.9639 41.0178C16.9779 41.1335 16.9925 41.249 17.0078 41.3645C17.237 41.4596 17.4703 41.5461 17.7061 41.6233C17.9477 41.7024 18.1927 41.7722 18.4404 41.8333C18.6873 41.8934 18.9373 41.9443 19.1885 41.9856C19.4398 42.0269 19.6934 42.0599 19.9473 42.0823C19.9957 42.1046 20.0468 42.1232 20.0996 42.137C20.1515 42.1507 20.2051 42.1601 20.2588 42.1653C20.3125 42.1704 20.3672 42.1704 20.4209 42.1653C20.4311 42.1645 20.4411 42.1606 20.4512 42.1594C20.4414 42.0778 20.4328 41.996 20.4238 41.9143C20.1935 41.8771 19.9633 41.8371 19.7344 41.7913C19.2076 41.6863 18.6844 41.5582 18.168 41.4094C17.7623 41.2926 17.3608 41.1616 16.9639 41.0178ZM9.83594 36.5198C9.55689 36.3512 9.38209 36.2957 9.79199 36.7678C10.0234 37.0249 10.2643 37.2727 10.5156 37.51C10.7669 37.7482 11.0285 37.9749 11.2988 38.1917C11.5691 38.4074 11.848 38.6134 12.1348 38.8069C12.4215 39.0003 12.7162 39.1824 13.0186 39.3518C14.2217 40.0647 15.5202 40.6675 16.877 41.304C16.8726 41.1962 16.8674 41.0885 16.8643 40.9807C16.7894 40.9531 16.7142 40.9263 16.6396 40.8977C16.138 40.7059 15.6437 40.4939 15.1602 40.26C14.6671 40.0227 14.1852 39.7655 13.7139 39.4895C13.2425 39.2135 12.782 38.9187 12.335 38.6057C11.8869 38.2927 11.4525 37.961 11.0322 37.6135C10.612 37.2653 10.2052 36.9007 9.81445 36.5198C10.0415 36.6574 10.366 36.8639 10.5107 36.9319C10.1792 36.7128 9.85984 36.4754 9.54297 36.2307L9.83594 36.5198ZM26.6621 34.1311C26.6049 34.3193 26.5501 34.5085 26.499 34.6985C26.4471 34.8884 26.3984 35.0791 26.3525 35.2708C26.3066 35.4624 26.2635 35.6544 26.2236 35.8469C26.1803 35.6544 26.1406 35.4958 26.1865 35.4202C26.229 35.2612 26.2748 35.1039 26.3232 34.9475C26.3717 34.7911 26.423 34.6354 26.4775 34.4807C26.5321 34.3268 26.5898 34.1729 26.6504 34.0208C26.711 33.8686 26.775 33.7172 26.8408 33.5676C26.7785 33.7541 26.7193 33.942 26.6621 34.1311ZM40.9941 29.9817C41.0011 29.9704 41.0075 29.9587 41.0146 29.9475C41.0649 29.8675 41.1197 29.791 41.1777 29.717C41.094 29.8403 41.0389 29.9165 40.9941 29.9817ZM22.5654 23.1252C22.513 23.1923 22.46 23.2589 22.4082 23.3264C22.4602 23.2591 22.5126 23.192 22.5654 23.1252ZM43.5771 19.884C43.6048 20.024 43.6286 20.1631 43.6494 20.304C43.6702 20.4441 43.6883 20.5859 43.7021 20.7278C43.7169 20.8687 43.7276 21.0108 43.7354 21.1526C43.6695 20.5747 43.5858 20.0278 43.4844 19.467C43.5182 19.6055 43.5494 19.7447 43.5771 19.884ZM11.6406 14.5491C11.3556 14.9213 11.0883 15.3072 10.8418 15.7053C10.5039 16.2504 10.2032 16.816 9.94238 17.4006H9.92188C10.037 17.1343 10.1606 16.8713 10.2939 16.6135C10.4274 16.3547 10.57 16.1005 10.7217 15.8528C10.8733 15.6043 11.0332 15.3616 11.2021 15.1243C11.3421 14.9284 11.4892 14.7369 11.6406 14.5491ZM36.2578 14.6702C35.555 14.8903 34.8599 15.1346 34.1738 15.4016C34.3411 15.3251 34.511 15.2517 34.6816 15.1829C34.8524 15.1141 35.025 15.0496 35.1992 14.9885C35.3734 14.9275 35.5488 14.8709 35.7256 14.8176C35.9022 14.7644 36.0795 14.7148 36.2578 14.6702ZM11.7344 14.4319C11.7026 14.4704 11.672 14.5102 11.6406 14.5491C11.7453 14.4123 11.8522 14.2767 11.9619 14.1438C11.9732 14.1301 11.9847 14.1165 11.9961 14.1028C11.9098 14.2108 11.821 14.3194 11.7344 14.4319ZM14.7793 11.5354C14.2542 11.9052 13.7536 12.3094 13.2822 12.7454C12.824 13.1692 12.3946 13.6228 11.9961 14.1028C12.6248 13.3165 13.2232 12.6455 13.4922 12.0686L13.8145 11.9504C13.9245 11.9109 14.0341 11.8682 14.1416 11.8235C14.2497 11.7797 14.3575 11.7339 14.4639 11.6858C14.5694 11.6377 14.6755 11.5869 14.7793 11.5354ZM28.96 10.427C29.1142 10.427 29.2436 10.4276 29.293 10.4612C29.4081 10.5162 29.5224 10.5739 29.6357 10.634C29.7483 10.6942 29.8599 10.7561 29.9707 10.8206C30.0808 10.8851 30.1905 10.951 30.2988 11.0198C30.4063 11.0886 30.5125 11.1596 30.6182 11.2327C30.4839 11.157 30.3489 11.0833 30.2129 11.012C30.077 10.9407 29.9394 10.8719 29.8018 10.8049C29.6632 10.7379 29.5233 10.6724 29.3838 10.6096C29.2434 10.5468 29.1021 10.4855 28.96 10.427ZM19.0918 9.53735C18.9628 9.57173 18.8353 9.60696 18.708 9.64478C18.5807 9.68175 18.4536 9.72069 18.3271 9.76196C18.2016 9.80321 18.0759 9.84716 17.9512 9.89185C18.0213 9.7956 17.9079 9.74129 17.874 9.68286L18.2725 9.59985C18.405 9.57579 18.5385 9.55321 18.6719 9.53345C18.9397 9.49434 19.2087 9.46385 19.4785 9.44165C19.3485 9.47175 19.2201 9.50381 19.0918 9.53735ZM25.4775 5.17017C25.6794 5.19048 25.8811 5.21438 26.082 5.24146C26.4841 5.29563 26.8845 5.36386 27.2822 5.44556C27.6799 5.52638 28.0751 5.62032 28.4658 5.72778C28.8575 5.83614 29.2449 5.95691 29.6279 6.09106C30.098 6.27833 30.5577 6.49069 31.0049 6.72681C31.452 6.96245 31.8863 7.2211 32.3066 7.50317C32.7261 7.7844 33.1312 8.08715 33.5186 8.41138C33.9058 8.73554 34.2759 9.0788 34.626 9.44165C33.944 8.85257 33.2186 8.31472 32.4561 7.83228C31.6944 7.34987 30.8962 6.92333 30.0713 6.55786C29.2455 6.19241 28.3933 5.88849 27.5225 5.64771C26.6507 5.40692 25.7631 5.23033 24.8662 5.11938L25.4775 5.17017ZM23.1357 8.97681C23.1738 8.99908 23.2132 9.01935 23.2529 9.03735C23.2927 9.05621 23.3334 9.07367 23.374 9.08911C23.4154 9.10536 23.4568 9.11911 23.499 9.1311L22.9229 9.10474C22.7299 9.0984 22.537 9.09642 22.3447 9.09985C22.5707 9.04572 22.7975 8.98467 23.0234 8.90649C23.0598 8.93143 23.0976 8.95531 23.1357 8.97681ZM27.6641 4.8186C28.7207 5.06331 29.7467 5.42576 30.7227 5.89868C31.2798 6.16869 31.8187 6.47396 32.3359 6.81274C32.8533 7.15071 33.3497 7.52149 33.8193 7.9231C33.3401 7.53439 32.8392 7.17411 32.3184 6.84302C31.7972 6.51238 31.2571 6.21178 30.7012 5.94263C30.1457 5.67345 29.5744 5.43649 28.9912 5.23267C28.4082 5.0289 27.8129 4.85888 27.21 4.72388L27.6641 4.8186ZM22.418 3.63696C22.7844 3.63438 23.1501 3.64767 23.5156 3.67603C23.8805 3.70355 24.2452 3.74743 24.6074 3.80591L23.6006 3.87329C22.957 3.84494 22.3125 3.84747 21.6689 3.88013C21.0251 3.91367 20.3829 3.97693 19.7451 4.07153C19.1076 4.16525 18.476 4.28985 17.8506 4.44458C17.2249 4.59938 16.6075 4.78415 16 4.99829C16.3423 4.86843 16.6878 4.74658 17.0361 4.63306C17.3844 4.51959 17.7353 4.41477 18.0879 4.31763C18.4413 4.22134 18.7965 4.13282 19.1543 4.052C19.5112 3.97204 19.871 3.90078 20.2314 3.83716C20.5919 3.77352 20.9565 3.72519 21.3213 3.69165C21.686 3.65813 22.0515 3.63955 22.418 3.63696Z" fill="black"/>
</svg>
