<svg width="84" height="61" viewBox="0 0 84 61" fill="none" xmlns="http://www.w3.org/2000/svg">
<path d="M84 53.375C84 57.5862 80.6068 61 76.421 61H7.57895C3.39321 61 0 57.5862 0 53.375V15.8854H84V53.375Z" fill="black"/>
<path fill-rule="evenodd" clip-rule="evenodd" d="M76.421 0C80.6068 6.14058e-07 84 3.41383 84 7.625V12.7083H0V7.625C0 3.41383 3.39321 0 7.57895 0H76.421ZM66.9474 3.17708C65.2033 3.17708 63.7895 4.59951 63.7895 6.35417C63.7895 8.10882 65.2033 9.53125 66.9474 9.53125C68.6914 9.53125 70.1053 8.10882 70.1053 6.35417C70.1053 4.59951 68.6914 3.17708 66.9474 3.17708ZM76.421 3.17708C74.677 3.17708 73.2632 4.59951 73.2632 6.35417C73.2632 8.10882 74.677 9.53125 76.421 9.53125C78.1651 9.53125 79.5789 8.10882 79.5789 6.35417C79.5789 4.59951 78.1651 3.17708 76.421 3.17708Z" fill="black"/>
</svg>
