<svg width="68" height="68" viewBox="0 0 68 68" fill="none" xmlns="http://www.w3.org/2000/svg">
<path d="M46.0996 20.875C44.1172 8.66602 39.4414 0.09375 34 0.09375C28.5586 0.09375 23.8828 8.66602 21.9004 20.875H46.0996ZM20.875 34C20.875 37.0352 21.0391 39.9473 21.3262 42.75H46.6602C46.9473 39.9473 47.1113 37.0352 47.1113 34C47.1113 30.9648 46.9473 28.0527 46.6602 25.25H21.3262C21.0391 28.0527 20.875 30.9648 20.875 34ZM65.2676 20.875C61.3574 11.5918 53.4414 4.41406 43.666 1.51562C47.002 6.13672 49.2988 13.0957 50.502 20.875H65.2676ZM24.3203 1.51562C14.5586 4.41406 6.62891 11.5918 2.73242 20.875H17.498C18.6875 13.0957 20.9844 6.13672 24.3203 1.51562ZM66.7305 25.25H51.0488C51.3359 28.1211 51.5 31.0605 51.5 34C51.5 36.9395 51.3359 39.8789 51.0488 42.75H66.7168C67.4687 39.9473 67.8926 37.0352 67.8926 34C67.8926 30.9648 67.4687 28.0527 66.7305 25.25ZM16.5 34C16.5 31.0605 16.6641 28.1211 16.9512 25.25H1.26953C0.53125 28.0527 0.09375 30.9648 0.09375 34C0.09375 37.0352 0.53125 39.9473 1.26953 42.75H16.9375C16.6641 39.8789 16.5 36.9395 16.5 34ZM21.9004 47.125C23.8828 59.334 28.5586 67.9062 34 67.9062C39.4414 67.9062 44.1172 59.334 46.0996 47.125H21.9004ZM43.6797 66.4844C53.4414 63.5859 61.3711 56.4082 65.2812 47.125H50.5156C49.3125 54.9043 47.0156 61.8633 43.6797 66.4844ZM2.73242 47.125C6.64258 56.4082 14.5586 63.5859 24.334 66.4844C20.998 61.8633 18.7012 54.9043 17.498 47.125H2.73242Z" fill="black"/>
</svg>
