<svg xmlns="http://www.w3.org/2000/svg" version="1.1" xmlns:xlink="http://www.w3.org/1999/xlink" width="1000" height="1000"><style>
    #light-icon {
      display: inline;
    }
    #dark-icon {
      display: none;
    }

    @media (prefers-color-scheme: dark) {
      #light-icon {
        display: none;
      }
      #dark-icon {
        display: inline;
      }
    }
  </style><g id="light-icon"><svg xmlns="http://www.w3.org/2000/svg" version="1.1" xmlns:xlink="http://www.w3.org/1999/xlink" width="1000" height="1000"><g><g transform="matrix(2.949852507374631,0,0,2.949852507374631,0,0)"><svg xmlns="http://www.w3.org/2000/svg" version="1.1" xmlns:xlink="http://www.w3.org/1999/xlink" width="339" height="339"><svg width="339" height="339" viewBox="0 0 339 339" fill="none" xmlns="http://www.w3.org/2000/svg">
<circle cx="169.5" cy="169.5" r="159" stroke="#FBD167" stroke-width="21"></circle>
<circle cx="169.5" cy="169.5" r="122.5" stroke="#FBD167" stroke-width="14"></circle>
<circle cx="169.5" cy="169.5" r="74.5" stroke="#003F7D" stroke-width="16"></circle>
<rect x="92" y="160" width="44" height="22" fill="#003F7D"></rect>
<rect x="203" y="160" width="44" height="22" fill="#003F7D"></rect>
</svg></svg></g></g></svg></g><g id="dark-icon"><svg xmlns="http://www.w3.org/2000/svg" version="1.1" xmlns:xlink="http://www.w3.org/1999/xlink" width="1000" height="1000"><g><g transform="matrix(2.949852507374631,0,0,2.949852507374631,0,0)"><svg xmlns="http://www.w3.org/2000/svg" version="1.1" xmlns:xlink="http://www.w3.org/1999/xlink" width="339" height="339"><svg width="339" height="339" viewBox="0 0 339 339" fill="none" xmlns="http://www.w3.org/2000/svg">
<circle cx="169.5" cy="169.5" r="159" stroke="white" stroke-width="21"></circle>
<circle cx="169.5" cy="169.5" r="122.5" stroke="white" stroke-width="14"></circle>
<circle cx="169.5" cy="169.5" r="74.5" stroke="white" stroke-width="16"></circle>
<rect x="92" y="160" width="44" height="22" fill="white"></rect>
<rect x="203" y="160" width="44" height="22" fill="white"></rect>
</svg></svg></g></g></svg></g></svg>