<svg width="3553" height="1933" viewBox="0 0 3553 1933" fill="none" xmlns="http://www.w3.org/2000/svg">
<g opacity="0.02">
<rect width="2403.84" height="29.1663" transform="matrix(-0.953503 0.301384 0.301384 0.953503 3268.68 0)" fill="white"/>
<rect width="2403.84" height="29.1663" transform="matrix(-0.953503 0.301384 0.301384 0.953503 3268.68 0)" fill="url(#paint0_linear_102_1266)"/>
<rect width="877.923" height="29.1663" transform="matrix(-0.953503 0.301384 0.301384 0.953503 3544.11 871.384)" fill="white"/>
<rect width="877.923" height="29.1663" transform="matrix(-0.953503 0.301384 0.301384 0.953503 3544.11 871.384)" fill="url(#paint1_linear_102_1266)"/>
<rect width="1024.24" height="26.7358" transform="matrix(-0.953503 0.301384 0.301384 0.953503 2914.61 162.897)" fill="white"/>
<rect width="1024.24" height="26.7358" transform="matrix(-0.953503 0.301384 0.301384 0.953503 2914.61 162.897)" fill="url(#paint2_linear_102_1266)"/>
<rect width="1024.24" height="26.7358" transform="matrix(-0.953503 0.301384 0.301384 0.953503 3001.05 436.363)" fill="white"/>
<rect width="1024.24" height="26.7358" transform="matrix(-0.953503 0.301384 0.301384 0.953503 3001.05 436.363)" fill="url(#paint3_linear_102_1266)"/>
<rect width="647.99" height="26.7357" transform="matrix(-0.953503 0.301384 0.301384 0.953503 2987.13 392.33)" fill="white"/>
<rect width="647.99" height="26.7357" transform="matrix(-0.953503 0.301384 0.301384 0.953503 2987.13 392.33)" fill="url(#paint4_linear_102_1266)"/>
<rect width="647.99" height="26.7358" transform="matrix(-0.953503 0.301384 0.301384 0.953503 3161.47 943.898)" fill="white"/>
<rect width="647.99" height="26.7358" transform="matrix(-0.953503 0.301384 0.301384 0.953503 3161.47 943.898)" fill="url(#paint5_linear_102_1266)"/>
<rect width="2717.38" height="29.1663" transform="matrix(-0.953503 0.301384 0.301384 0.953503 2619.6 304.576)" fill="white"/>
<rect width="2717.38" height="29.1663" transform="matrix(-0.953503 0.301384 0.301384 0.953503 2619.6 304.576)" fill="url(#paint6_linear_102_1266)"/>
<rect width="961.534" height="29.1663" transform="matrix(-0.953503 0.301384 0.301384 0.953503 2706.03 578.043)" fill="white"/>
<rect width="961.534" height="29.1663" transform="matrix(-0.953503 0.301384 0.301384 0.953503 2706.03 578.043)" fill="url(#paint7_linear_102_1266)"/>
<rect width="2090.29" height="29.1663" transform="matrix(-0.953503 0.301384 0.301384 0.953503 2634.25 350.927)" fill="white"/>
<rect width="2090.29" height="29.1663" transform="matrix(-0.953503 0.301384 0.301384 0.953503 2634.25 350.927)" fill="url(#paint8_linear_102_1266)"/>
<rect width="1452.75" height="29.1663" transform="matrix(-0.953503 0.301384 0.301384 0.953503 2720.68 624.393)" fill="white"/>
<rect width="1452.75" height="29.1663" transform="matrix(-0.953503 0.301384 0.301384 0.953503 2720.68 624.393)" fill="url(#paint9_linear_102_1266)"/>
<rect width="1369.14" height="29.1663" transform="matrix(-0.953503 0.301384 0.301384 0.953503 2648.9 397.277)" fill="white"/>
<rect width="1369.14" height="29.1663" transform="matrix(-0.953503 0.301384 0.301384 0.953503 2648.9 397.277)" fill="url(#paint10_linear_102_1266)"/>
<rect width="700.248" height="29.1663" transform="matrix(-0.953503 0.301384 0.301384 0.953503 2735.33 670.743)" fill="white"/>
<rect width="700.248" height="29.1663" transform="matrix(-0.953503 0.301384 0.301384 0.953503 2735.33 670.743)" fill="url(#paint11_linear_102_1266)"/>
<rect width="543.476" height="29.1663" transform="matrix(-0.953503 0.301384 0.301384 0.953503 2663.55 443.627)" fill="white"/>
<rect width="543.476" height="29.1663" transform="matrix(-0.953503 0.301384 0.301384 0.953503 2663.55 443.627)" fill="url(#paint12_linear_102_1266)"/>
<rect width="1118.31" height="29.1663" transform="matrix(-0.953503 0.301384 0.301384 0.953503 2500.85 795.841)" fill="white"/>
<rect width="1118.31" height="29.1663" transform="matrix(-0.953503 0.301384 0.301384 0.953503 2500.85 795.841)" fill="url(#paint13_linear_102_1266)"/>
<rect width="2090.29" height="29.1663" transform="matrix(-0.953503 0.301384 0.301384 0.953503 2515.5 842.191)" fill="white"/>
<rect width="2090.29" height="29.1663" transform="matrix(-0.953503 0.301384 0.301384 0.953503 2515.5 842.191)" fill="url(#paint14_linear_102_1266)"/>
<rect width="1452.75" height="29.1663" transform="matrix(-0.953503 0.301384 0.301384 0.953503 2530.15 888.542)" fill="white"/>
<rect width="1452.75" height="29.1663" transform="matrix(-0.953503 0.301384 0.301384 0.953503 2530.15 888.542)" fill="url(#paint15_linear_102_1266)"/>
<rect width="783.859" height="29.1663" transform="matrix(-0.953503 0.301384 0.301384 0.953503 2793.94 856.144)" fill="white"/>
<rect width="783.859" height="29.1663" transform="matrix(-0.953503 0.301384 0.301384 0.953503 2793.94 856.144)" fill="url(#paint16_linear_102_1266)"/>
<rect width="1693.14" height="29.1663" transform="matrix(-0.953503 0.301384 0.301384 0.953503 2808.59 902.494)" fill="white"/>
<rect width="1693.14" height="29.1663" transform="matrix(-0.953503 0.301384 0.301384 0.953503 2808.59 902.494)" fill="url(#paint17_linear_102_1266)"/>
<rect width="1013.79" height="29.1663" transform="matrix(-0.953503 0.301384 0.301384 0.953503 2823.24 948.844)" fill="white"/>
<rect width="1013.79" height="29.1663" transform="matrix(-0.953503 0.301384 0.301384 0.953503 2823.24 948.844)" fill="url(#paint18_linear_102_1266)"/>
<rect width="606.185" height="29.1663" transform="matrix(-0.953503 0.301384 0.301384 0.953503 2837.89 995.195)" fill="white"/>
<rect width="606.185" height="29.1663" transform="matrix(-0.953503 0.301384 0.301384 0.953503 2837.89 995.195)" fill="url(#paint19_linear_102_1266)"/>
</g>
<defs>
<linearGradient id="paint0_linear_102_1266" x1="0" y1="14.5831" x2="2403.84" y2="14.5831" gradientUnits="userSpaceOnUse">
<stop stop-color="#EFEFEF"/>
<stop offset="1" stop-color="#464646"/>
</linearGradient>
<linearGradient id="paint1_linear_102_1266" x1="0" y1="14.5832" x2="877.923" y2="14.5832" gradientUnits="userSpaceOnUse">
<stop stop-color="#EFEFEF"/>
<stop offset="1" stop-color="#464646"/>
</linearGradient>
<linearGradient id="paint2_linear_102_1266" x1="0" y1="13.3679" x2="1024.24" y2="13.3679" gradientUnits="userSpaceOnUse">
<stop stop-color="#EFEFEF"/>
<stop offset="1" stop-color="#464646"/>
</linearGradient>
<linearGradient id="paint3_linear_102_1266" x1="0" y1="13.3679" x2="1024.24" y2="13.3679" gradientUnits="userSpaceOnUse">
<stop stop-color="#EFEFEF"/>
<stop offset="1" stop-color="#464646"/>
</linearGradient>
<linearGradient id="paint4_linear_102_1266" x1="0" y1="13.3679" x2="647.99" y2="13.3679" gradientUnits="userSpaceOnUse">
<stop stop-color="#EFEFEF"/>
<stop offset="1" stop-color="#464646"/>
</linearGradient>
<linearGradient id="paint5_linear_102_1266" x1="0" y1="13.3679" x2="647.99" y2="13.3679" gradientUnits="userSpaceOnUse">
<stop stop-color="#EFEFEF"/>
<stop offset="1" stop-color="#464646"/>
</linearGradient>
<linearGradient id="paint6_linear_102_1266" x1="0" y1="14.5831" x2="2717.38" y2="14.5831" gradientUnits="userSpaceOnUse">
<stop stop-color="#EFEFEF"/>
<stop offset="1" stop-color="#464646"/>
</linearGradient>
<linearGradient id="paint7_linear_102_1266" x1="0" y1="14.5831" x2="961.534" y2="14.5831" gradientUnits="userSpaceOnUse">
<stop stop-color="#EFEFEF"/>
<stop offset="1" stop-color="#464646"/>
</linearGradient>
<linearGradient id="paint8_linear_102_1266" x1="0" y1="14.5831" x2="2090.29" y2="14.5831" gradientUnits="userSpaceOnUse">
<stop stop-color="#EFEFEF"/>
<stop offset="1" stop-color="#464646"/>
</linearGradient>
<linearGradient id="paint9_linear_102_1266" x1="0" y1="14.5831" x2="1452.75" y2="14.5831" gradientUnits="userSpaceOnUse">
<stop stop-color="#EFEFEF"/>
<stop offset="1" stop-color="#464646"/>
</linearGradient>
<linearGradient id="paint10_linear_102_1266" x1="0" y1="14.5831" x2="1369.14" y2="14.5831" gradientUnits="userSpaceOnUse">
<stop stop-color="#EFEFEF"/>
<stop offset="1" stop-color="#464646"/>
</linearGradient>
<linearGradient id="paint11_linear_102_1266" x1="0" y1="14.5831" x2="700.248" y2="14.5831" gradientUnits="userSpaceOnUse">
<stop stop-color="#EFEFEF"/>
<stop offset="1" stop-color="#464646"/>
</linearGradient>
<linearGradient id="paint12_linear_102_1266" x1="0" y1="14.5831" x2="543.476" y2="14.5831" gradientUnits="userSpaceOnUse">
<stop stop-color="#EFEFEF"/>
<stop offset="1" stop-color="#464646"/>
</linearGradient>
<linearGradient id="paint13_linear_102_1266" x1="0" y1="14.5831" x2="1118.31" y2="14.5831" gradientUnits="userSpaceOnUse">
<stop stop-color="#EFEFEF"/>
<stop offset="1" stop-color="#464646"/>
</linearGradient>
<linearGradient id="paint14_linear_102_1266" x1="0" y1="14.5831" x2="2090.29" y2="14.5831" gradientUnits="userSpaceOnUse">
<stop stop-color="#EFEFEF"/>
<stop offset="1" stop-color="#464646"/>
</linearGradient>
<linearGradient id="paint15_linear_102_1266" x1="0" y1="14.5831" x2="1452.75" y2="14.5831" gradientUnits="userSpaceOnUse">
<stop stop-color="#EFEFEF"/>
<stop offset="1" stop-color="#464646"/>
</linearGradient>
<linearGradient id="paint16_linear_102_1266" x1="0" y1="14.5832" x2="783.859" y2="14.5832" gradientUnits="userSpaceOnUse">
<stop stop-color="#EFEFEF"/>
<stop offset="1" stop-color="#464646"/>
</linearGradient>
<linearGradient id="paint17_linear_102_1266" x1="0" y1="14.5831" x2="1693.14" y2="14.5831" gradientUnits="userSpaceOnUse">
<stop stop-color="#EFEFEF"/>
<stop offset="1" stop-color="#464646"/>
</linearGradient>
<linearGradient id="paint18_linear_102_1266" x1="0" y1="14.5831" x2="1013.79" y2="14.5831" gradientUnits="userSpaceOnUse">
<stop stop-color="#EFEFEF"/>
<stop offset="1" stop-color="#464646"/>
</linearGradient>
<linearGradient id="paint19_linear_102_1266" x1="0" y1="14.5831" x2="606.185" y2="14.5831" gradientUnits="userSpaceOnUse">
<stop stop-color="#EFEFEF"/>
<stop offset="1" stop-color="#464646"/>
</linearGradient>
</defs>
</svg>
