<svg width="70" height="70" viewBox="0 0 70 70" fill="none" xmlns="http://www.w3.org/2000/svg">
<path d="M68.8828 0C69.4998 0 70 0.500176 70 1.11719V68.8828C70 69.4998 69.4998 70 68.8828 70H1.11719C0.500176 70 0 69.4998 0 68.8828V1.11719C0 0.500176 0.500176 0 1.11719 0H68.8828ZM2.23438 67.7656H67.7656V2.23438H2.23438V67.7656ZM64.416 47.9082C65.0328 47.9085 65.5322 48.4085 65.5322 49.0254V64.415C65.5322 65.0319 65.0328 65.532 64.416 65.5322H5.58594C4.96895 65.5322 4.46879 65.032 4.46875 64.415V49.0254C4.46875 48.4084 4.96893 47.9082 5.58594 47.9082H64.416ZM6.70312 63.2979H63.2988V50.1416H6.70312V63.2979ZM13.9258 43.4395C14.5429 43.4395 15.0429 43.9397 15.043 44.5566C15.043 45.1737 14.5428 45.6738 13.9258 45.6738H5.58594C4.96893 45.6738 4.46875 45.1737 4.46875 44.5566C4.46878 43.9397 4.96894 43.4395 5.58594 43.4395H13.9258ZM35.0254 43.4395C35.6424 43.4395 36.1426 43.9397 36.1426 44.5566C36.1426 45.1737 35.6424 45.6738 35.0254 45.6738H26.6855C26.0685 45.6738 25.5684 45.1737 25.5684 44.5566C25.5684 43.9397 26.0686 43.4395 26.6855 43.4395H35.0254ZM56.123 43.4395C56.7402 43.4395 57.2402 43.9397 57.2402 44.5566C57.2402 45.1737 56.7401 45.6738 56.123 45.6738H47.7832C47.1662 45.6738 46.666 45.1737 46.666 44.5566C46.666 43.9397 47.1662 43.4395 47.7832 43.4395H56.123ZM22.2168 38.9717C22.8338 38.9717 23.334 39.4719 23.334 40.0889C23.3339 40.7058 22.8337 41.2061 22.2168 41.2061H5.58594C4.96899 41.2061 4.46885 40.7058 4.46875 40.0889C4.46875 39.4719 4.96893 38.9717 5.58594 38.9717H22.2168ZM43.3164 38.9717C43.9335 38.9717 44.4336 39.4719 44.4336 40.0889C44.4335 40.7058 43.9334 41.2061 43.3164 41.2061H26.6855C26.0686 41.2061 25.5685 40.7058 25.5684 40.0889C25.5684 39.4719 26.0685 38.9717 26.6855 38.9717H43.3164ZM64.4141 38.9717C65.0311 38.9717 65.5312 39.4719 65.5312 40.0889C65.5311 40.7058 65.031 41.2061 64.4141 41.2061H47.7832C47.1663 41.2061 46.6661 40.7058 46.666 40.0889C46.666 39.4719 47.1662 38.9717 47.7832 38.9717H64.4141ZM22.2168 34.5039C22.8338 34.5039 23.334 35.0041 23.334 35.6211C23.3337 36.2379 22.8337 36.7373 22.2168 36.7373H5.58594C4.96907 36.7373 4.46899 36.2379 4.46875 35.6211C4.46875 35.0041 4.96893 34.5039 5.58594 34.5039H22.2168ZM43.3164 34.5039C43.9335 34.5039 44.4336 35.0041 44.4336 35.6211C44.4334 36.2379 43.9333 36.7373 43.3164 36.7373H26.6855C26.0687 36.7373 25.5686 36.2379 25.5684 35.6211C25.5684 35.0041 26.0685 34.5039 26.6855 34.5039H43.3164ZM64.4141 34.5039C65.0311 34.5039 65.5312 35.0041 65.5312 35.6211C65.531 36.2379 65.0309 36.7373 64.4141 36.7373H47.7832C47.1663 36.7373 46.6663 36.2379 46.666 35.6211C46.666 35.0041 47.1662 34.5039 47.7832 34.5039H64.4141ZM22.2168 13.4043C22.8338 13.4043 23.334 13.9045 23.334 14.5215V31.1523C23.334 31.7694 22.8338 32.2695 22.2168 32.2695H5.58594C4.96893 32.2695 4.46875 31.7694 4.46875 31.1523V14.5215C4.46875 13.9045 4.96893 13.4043 5.58594 13.4043H22.2168ZM43.3164 13.4043C43.9335 13.4043 44.4336 13.9045 44.4336 14.5215V31.1523C44.4336 31.7694 43.9334 32.2695 43.3164 32.2695H26.6855C26.0685 32.2695 25.5684 31.7694 25.5684 31.1523V14.5215C25.5684 13.9045 26.0685 13.4043 26.6855 13.4043H43.3164ZM64.4141 13.4043C65.0311 13.4043 65.5312 13.9045 65.5312 14.5215V31.1523C65.5312 31.7694 65.0311 32.2695 64.4141 32.2695H47.7832C47.1662 32.2695 46.666 31.7694 46.666 31.1523V14.5215C46.666 13.9045 47.1662 13.4043 47.7832 13.4043H64.4141ZM8.28223 30.0352H19.5205L13.9014 24.417L8.28223 30.0352ZM29.3818 30.0352H40.6191L35.001 24.417L29.3818 30.0352ZM50.4795 30.0352H61.7178L56.0986 24.417L50.4795 30.0352ZM6.70312 28.4561L12.3213 22.8369L6.70312 17.2178V28.4561ZM15.4814 22.8369L21.0996 28.4551V17.2178L15.4814 22.8369ZM27.8027 28.4551L33.4209 22.8369L27.8027 17.2178V28.4551ZM36.5811 22.8369L42.1992 28.4551V17.2178L36.5811 22.8369ZM48.9004 28.4551L54.5186 22.8369L48.9004 17.2178V28.4551ZM57.6787 22.8369L63.2969 28.4551V17.2178L57.6787 22.8369ZM8.28223 15.6387L13.9014 21.2568L19.5205 15.6387H8.28223ZM35.001 21.2568L40.6191 15.6387H29.3818L35.001 21.2568ZM56.0986 21.2568L61.7178 15.6387H50.4795L56.0986 21.2568ZM64.416 4.46777C65.0328 4.46803 65.5322 4.96813 65.5322 5.58496V10.0527C65.5322 10.6696 65.0328 11.1697 64.416 11.1699H5.58594C4.96893 11.1699 4.46875 10.6697 4.46875 10.0527V5.58496C4.46878 4.96797 4.96894 4.46777 5.58594 4.46777H64.416ZM6.70312 8.93652H63.2988V6.70215H6.70312V8.93652Z" fill="black"/>
</svg>
